# xmcd CD database file
# Copyright (C) 1996 Ti Kan
#
# Track frame offsets:
#  180
#  16600
#  38718
#  56658
#  76159
#  99444
#  114175
#  142105
#  160674
#  185770
#  201544
#  219834
#
# Disc length: 3164 seconds
#
# Revision: 1
# Processed by: cddbd v1.4b41PL1 Copyright (c) Steve Scherf et al.
# Submitted via: CDWizzard Release:4.13
#
DISCID=980c5a0c
DTITLE=The Revelators - Preach The Blues
DYEAR=1900
DGENRE=
TTITLE0=Great Big Mama
TTITLE1=Lord Lord
TTITLE2=Revelator Stomp
TTITLE3=Hear Me Muddy
TTITLE4=Lotto Blues
TTITLE5=Pigmeat Shuffle
TTITLE6=Young Dead
TTITLE7=Drip Down
TTITLE8=You Gotta Move
TTITLE9=Call Me Elmo
TTITLE10=Preach The Blues
TTITLE11=Peace Dance
EXTD=Chicqago Blues feel.  Local Band From Eugene.
EXTT0=
EXTT1=
EXTT2=
EXTT3=
EXTT4=
EXTT5=
EXTT6=
EXTT7=
EXTT8=
EXTT9=
EXTT10=
EXTT11=
PLAYORDER=
